<?xml version="1.0" encoding="utf-8"?>
<svg version="1.1" id="Layer_1" x="0px" y="0px" width="100%" viewBox="0 0 1297 950" enable-background="new 0 0 1297 950" xmlns="http://www.w3.org/2000/svg">
  <path fill="#FFFFFF" opacity="1.000000" stroke="none" d=" M908.000000,525.999939 C908.000000,487.861206 908.259583,450.219757 907.869507,412.584991 C907.718079,397.980408 918.231079,390.414429 930.086426,390.205109 C963.384705,389.617218 996.702332,389.772491 1030.007812,390.095428 C1046.844604,390.258667 1060.986816,397.589508 1071.550171,410.373016 C1078.539062,418.830933 1082.963013,428.882355 1083.121094,440.505249 C1083.263184,450.947815 1082.671387,461.032166 1076.979004,470.150726 C1068.249878,484.133698 1056.379761,493.862762 1039.828735,496.946259 C1035.995850,497.660339 1032.032471,497.942169 1028.127441,497.955475 C1002.651611,498.042114 977.175415,498.000000 951.310242,498.000000 C951.203552,499.315186 951.015259,500.570190 951.013306,501.825439 C950.992126,515.481934 951.003967,529.138489 950.998840,542.795044 C950.993713,556.350891 938.601562,566.120422 925.322388,563.044922 C913.705139,560.354309 908.000061,553.254944 908.000000,541.489075 C907.999939,536.492676 908.000000,531.496277 908.000000,525.999939 M957.576782,456.000000 C984.996643,456.000000 1012.416443,456.000000 1039.683960,456.000000 C1039.683960,447.963989 1039.683960,440.556427 1039.683960,433.316650 C1009.963684,433.316650 980.560303,433.316650 951.320679,433.316650 C951.320679,441.043701 951.320679,448.450867 951.320679,456.000000 C953.292114,456.000000 954.945923,456.000000 957.576782,456.000000 z"/>
  <path fill="#FFFFFF" opacity="1.000000" stroke="none" d=" M518.000000,521.000000 C518.000000,528.332642 517.925598,535.166199 518.016174,541.997620 C518.181580,554.463928 508.889771,561.990295 499.205902,563.850342 C488.722260,565.863953 478.026855,558.179565 475.245300,547.607849 C474.873871,546.196167 475.008942,544.635742 475.008575,543.144165 C474.998047,498.648834 475.048523,454.153381 474.959320,409.658234 C474.941345,400.695709 482.730225,392.788116 490.813782,391.102753 C495.103668,390.208344 499.605804,390.052094 504.013031,390.044006 C544.675293,389.969391 585.337830,389.957489 626.000000,390.051697 C631.322876,390.064026 636.591675,390.670044 641.226624,394.012085 C647.582214,398.594849 651.795959,408.497131 649.884827,416.124725 C647.778564,424.531616 642.236023,429.824432 633.888245,431.934906 C630.928528,432.683167 627.776245,432.950775 624.710938,432.956696 C589.382751,433.024597 554.054443,433.000000 518.363098,433.000000 C518.363098,440.457794 518.363098,447.868347 518.363098,456.000000 C519.809387,456.000000 521.554749,456.000000 523.300110,456.000000 C550.797241,456.000000 578.294373,456.038422 605.791382,455.977692 C614.559021,455.958344 620.863892,460.154785 624.724487,467.573608 C628.784729,475.376160 628.479065,483.643768 622.638428,490.349396 C618.794006,494.763306 613.683777,498.098511 607.000671,498.064606 C577.526367,497.915039 548.050903,498.000000 518.000000,498.000000 C518.000000,505.635132 518.000000,513.067566 518.000000,521.000000 z"/>
  <path fill="#FEFEFE" opacity="1.000000" stroke="none" d=" M405.707520,562.794312 C399.861603,567.604065 394.333496,572.227905 388.625549,576.617859 C388.054932,577.056702 386.118744,576.395630 385.288818,575.689636 C383.163513,573.881653 381.304657,571.760437 379.851593,570.284729 C372.524689,575.628967 365.995270,581.407227 358.551880,585.539001 C350.898987,589.786987 342.210083,591.577209 333.209137,591.071655 C330.412048,590.914551 329.034485,590.384155 328.856201,587.204041 C328.718872,584.754700 327.451538,582.368713 326.667877,579.895325 C307.680695,586.823730 289.913849,585.112305 273.120758,574.340515 C274.025391,570.837341 274.938812,567.300171 275.810059,563.926208 C269.250641,561.300598 262.413605,559.085754 256.063141,555.900818 C246.267807,550.988220 239.245422,542.982666 234.049194,533.445679 C233.454346,532.353943 233.850830,530.034058 234.680603,529.000366 C236.308487,526.972351 238.565338,525.449158 240.205063,524.026611 C235.017700,517.292725 229.809540,511.591400 225.844711,505.127472 C220.398056,496.247620 218.289825,486.223602 219.117676,475.763458 C219.195572,474.779358 220.687241,473.498230 221.794662,473.085876 C224.461853,472.092682 227.290527,471.533234 230.139038,470.776306 C223.206512,451.725311 224.843552,433.945831 235.670731,417.119568 C239.135727,418.015350 242.670807,418.929260 246.676682,419.964874 C250.736115,401.112457 260.076447,385.844635 278.052521,377.019897 C278.251434,377.087219 278.440826,377.097748 278.551727,377.196503 C286.732178,384.483765 286.557312,384.291779 294.514038,377.087738 C305.569824,367.077789 318.713287,362.323792 333.663361,363.132355 C334.827454,363.195343 336.339935,364.930389 336.904022,366.229767 C337.971161,368.687927 338.466644,371.394287 339.233612,374.118073 C358.207977,367.237000 375.993866,368.839478 392.921295,379.578461 C392.001282,383.075623 391.074249,386.599548 390.330780,389.425598 C398.514648,393.292419 406.839264,396.787476 414.731476,401.077881 C422.644989,405.379913 427.652496,412.710663 431.923035,420.416321 C432.539429,421.528503 432.228455,423.842834 431.426178,424.906952 C429.855560,426.990234 427.635834,428.584137 425.756561,430.314545 C430.285461,435.872467 434.895752,440.768402 438.616486,446.266327 C444.966888,455.649963 447.628265,466.267548 446.870300,477.590851 C446.790131,478.788574 445.127228,480.337524 443.839111,480.899292 C441.383606,481.970093 438.668671,482.445862 435.876831,483.219849 C442.761108,502.156342 441.167633,519.946045 430.410919,536.927429 C426.978729,536.021057 423.464081,535.092896 419.314850,533.997070 C416.717010,544.244385 413.529541,554.466858 405.707520,562.794312 M349.967651,466.005737 C357.859619,466.337280 365.909058,465.799683 373.608459,467.194305 C386.738403,469.572540 397.593781,476.426147 406.021118,486.987183 C415.103455,498.369202 419.380646,511.466095 420.133423,525.586487 C423.516998,526.662109 426.185516,528.546265 428.366425,523.456604 C436.227570,505.110565 430.930328,483.445953 418.437286,470.152649 C406.233582,457.167328 390.812561,451.195923 372.840668,454.096161 C363.720367,455.567963 355.311005,459.213684 347.779297,465.802368 C347.647461,466.137695 347.515656,466.473022 347.383850,466.808380 C347.947510,466.565582 348.511139,466.322754 349.967651,466.005737 M344.197632,491.779327 C343.862305,491.647491 343.526947,491.515686 343.191620,491.383850 C343.434418,491.947479 343.677246,492.511139 343.994202,493.959961 C343.662659,501.856049 344.200867,509.909637 342.805573,517.613037 C340.427460,530.742676 333.570435,541.594543 323.009674,550.021973 C311.627411,559.104797 298.530945,563.379822 284.418518,564.134033 C283.324158,567.522827 281.468719,570.190247 286.545441,572.366211 C304.890564,580.229004 326.576172,574.953186 339.840912,562.430603 C352.767944,550.226746 358.970978,534.846069 355.884186,516.846497 C354.331299,507.791321 351.083527,499.173645 344.197632,491.779327 M323.892517,494.655273 C323.058868,495.138702 322.174103,495.551910 321.399109,496.115906 C303.835815,508.896698 284.864105,512.243591 264.258026,504.678680 C252.059021,500.200165 242.655243,492.301208 235.756577,481.343048 C234.202347,478.874298 231.882721,477.580109 229.413742,479.338867 C228.091080,480.281097 226.915466,482.757355 227.141052,484.330994 C228.667145,494.975800 232.983215,504.488159 240.665649,512.084412 C253.468063,524.743164 268.597534,530.100708 286.814331,527.143372 C300.633728,524.899841 310.696960,517.407349 318.898315,506.891296 C321.588318,503.442047 323.055695,499.039276 325.642914,494.879059 C325.683167,494.339447 325.723389,493.799805 325.763611,493.260193 C325.323975,493.575378 324.884338,493.890564 323.892517,494.655273 M315.120941,469.642944 C315.660553,469.683167 316.200195,469.723389 316.739777,469.763611 C316.424591,469.323975 316.109406,468.884338 315.344727,467.892517 C315.093414,467.299438 314.962311,466.609253 314.573273,466.127380 C303.486664,452.395905 299.425140,436.530548 302.183472,419.414246 C304.874115,402.717987 313.725739,389.374237 328.068146,380.029175 C330.808685,378.243561 332.192200,376.400452 330.610413,373.080841 C328.873505,369.435608 325.788635,370.831879 323.422943,371.342651 C309.931244,374.255768 299.008240,381.255432 290.933441,392.571472 C282.543030,404.329895 280.519196,417.342987 282.752167,431.383087 C284.359985,441.492401 289.042358,450.043671 296.130798,457.024567 C301.439697,462.252930 307.050873,467.592499 315.120941,469.642944 M414.472748,423.942657 C415.897461,424.536499 417.322144,425.130371 418.815063,425.752686 C420.335083,424.130280 421.776642,422.591583 423.154572,421.120819 C409.687500,400.058441 381.326599,392.669739 359.894318,402.489655 C339.290710,411.929840 326.009644,433.840973 330.823914,460.969666 C336.970276,443.036743 347.745911,430.335541 364.012939,423.092957 C380.535675,415.736511 397.327301,416.201080 414.472748,423.942657 M295.175110,554.998413 C297.308228,554.330750 299.671722,554.046448 301.533783,552.927612 C308.808899,548.556213 316.934509,544.952393 322.869293,539.146912 C332.264740,529.955933 335.776031,517.423950 336.871277,504.482147 C337.163574,501.028442 335.948486,497.447205 335.215179,492.508453 C328.475677,511.831024 316.996918,524.977539 299.326752,531.922363 C281.607025,538.886658 264.227112,537.171692 247.603622,528.176880 C246.005630,529.651184 244.427063,531.107544 242.898224,532.518066 C248.635162,542.151917 254.580338,546.245483 261.869781,549.879150 C272.027710,554.942749 282.847565,557.339722 295.175110,554.998413 M390.385864,426.000000 C363.215454,424.260132 343.771484,445.935486 340.104431,460.945343 C341.868591,459.710999 343.402222,458.662750 344.910278,457.578918 C360.775024,446.177032 378.154785,442.373444 397.119324,447.638824 C411.667206,451.677948 422.601807,460.817810 430.943634,473.150421 C432.399658,475.302948 433.813568,475.601349 436.028900,474.998993 C438.510132,474.324371 439.430328,472.824646 438.999878,470.369751 C438.666138,468.466339 438.461884,466.529205 437.977600,464.664886 C432.173218,442.320099 413.206451,427.488770 390.385864,426.000000 M362.564667,490.961517 C358.368164,488.411530 354.171661,485.861542 349.975189,483.311554 C349.744965,483.709473 349.514709,484.107391 349.284485,484.505341 C350.313904,485.959015 351.331757,487.421082 352.374512,488.865112 C363.827789,504.725677 367.642456,522.129578 362.365814,541.103455 C358.322235,555.643433 349.239502,566.673035 336.814178,574.916504 C334.226044,576.633606 334.379730,578.440674 335.138916,580.521179 C336.557770,584.409363 339.977783,583.287964 342.583679,582.660095 C350.598145,580.729370 357.814087,577.367126 364.594696,572.277527 C380.361328,560.442993 387.534210,537.704102 382.350525,518.709167 C379.191376,507.132751 372.076508,498.578308 362.564667,490.961517 M389.998322,548.331970 C388.222137,553.095276 386.445953,557.858643 384.537140,562.977722 C385.620483,564.093445 387.108276,565.625671 388.545685,567.106079 C407.866943,555.858948 418.473511,527.340515 406.955994,503.014343 C396.890015,481.753876 373.321899,469.935333 350.449829,474.698242 C350.629883,474.959656 350.753876,475.313965 351.001526,475.463501 C351.546204,475.792389 352.137939,476.059937 352.737274,476.279327 C366.340240,481.258240 376.843719,489.960602 384.019409,502.552338 C392.079163,516.695435 394.302277,531.663635 389.998322,548.331970 M258.946777,408.517578 C248.935852,430.131897 254.476440,453.149017 274.195496,469.760986 C283.987183,478.009766 308.176422,483.417786 316.106201,478.600983 C297.740631,472.804230 284.808563,460.996918 277.888458,443.277283 C270.969818,425.561432 272.600098,408.104248 281.561432,391.811310 C280.059509,389.987488 278.703888,388.341339 277.350861,386.698334 C268.897736,392.094421 263.132812,399.192535 258.946777,408.517578 M314.562347,491.039337 C316.041595,489.900604 317.520844,488.761841 319.920593,486.914459 C277.201172,494.607941 246.909821,465.509888 245.846954,428.650513 C239.851837,426.121857 239.696594,424.932953 237.039825,432.880493 C235.723938,436.816956 234.224655,440.932129 234.132858,444.996338 C233.726990,462.965668 239.285873,478.406616 254.158722,489.701416 C272.451813,503.593597 294.522400,504.242096 314.562347,491.039337 M329.998688,388.493805 C329.176880,388.993134 328.226196,389.359253 327.552094,390.011292 C310.595795,406.412781 304.672760,426.490631 313.386841,448.620972 C315.413422,453.767670 318.948639,458.320343 321.789703,463.146332 C322.153534,462.914337 322.517365,462.682312 322.881195,462.450287 C315.353546,423.772278 341.893677,391.267914 381.787354,389.757599 C382.242737,387.698853 382.712219,385.576447 383.419708,382.378113 C376.409637,380.850220 369.929840,378.685516 363.319946,378.161194 C351.303131,377.208008 340.417297,381.201385 329.998688,388.493805 z"/>
  <path fill="#FFFFFF" opacity="1.000000" stroke="none" d=" M669.767212,558.272217 C665.166199,553.481262 662.895996,548.326111 662.919373,541.812256 C663.074890,498.509308 662.999939,455.205475 663.000183,411.901947 C663.000183,401.991455 668.697510,393.586853 677.644958,391.232208 C687.802490,388.559052 696.533203,390.975067 701.899353,400.412628 C704.036621,404.171417 705.789124,408.771393 705.825256,413.004639 C706.131470,448.794678 706.000000,484.588470 706.000000,521.000000 C707.922363,521.000000 709.680237,521.000000 711.438049,521.000000 C746.247437,521.000000 781.058228,520.815674 815.865601,521.078552 C832.997070,521.207886 841.571960,535.883606 836.915344,550.600647 C834.744324,557.462158 826.531006,563.890930 816.558533,563.928528 C772.589417,564.093933 728.619019,564.069946 684.649902,563.908508 C679.351196,563.889099 673.925964,562.968445 669.767212,558.272217 z"/>
  <path fill="#FFFFFF" opacity="1.000000" stroke="none" d=" M892.326599,401.784607 C893.402832,404.805359 894.888489,407.539398 894.897400,410.278229 C895.042297,454.756989 895.014221,499.236389 894.990845,543.715637 C894.984314,556.165527 881.730774,566.430542 869.758301,563.341125 C855.552368,559.675293 851.000000,553.764526 851.000000,538.985718 C851.000000,496.172363 850.989929,453.358978 851.006348,410.545624 C851.011047,398.334167 864.403870,388.420685 876.526428,390.674255 C883.712952,392.010223 888.512207,395.542450 892.326599,401.784607 z"/>
  <path fill="#000000" opacity="1.000000" stroke="none" d=" M348.869720,465.905334 C348.511139,466.322754 347.947510,466.565582 347.383850,466.808380 C347.515656,466.473022 347.647461,466.137695 348.002045,465.611115 C348.371429,465.523468 348.518036,465.627106 348.869720,465.905334 z"/>
  <path fill="#000000" opacity="1.000000" stroke="none" d=" M315.569641,468.593323 C316.109406,468.884338 316.424591,469.323975 316.739807,469.763611 C316.200195,469.723389 315.660553,469.683167 315.024200,469.362549 C315.066650,468.968781 315.205872,468.855377 315.569641,468.593323 z"/>
  <path fill="#000000" opacity="1.000000" stroke="none" d=" M344.094666,492.869720 C343.677246,492.511139 343.434418,491.947479 343.191620,491.383850 C343.526947,491.515686 343.862305,491.647491 344.388885,492.002075 C344.476532,492.371429 344.372894,492.518036 344.094666,492.869720 z"/>
  <path fill="#000000" opacity="1.000000" stroke="none" d=" M324.593323,494.430359 C324.884338,493.890564 325.323975,493.575378 325.763611,493.260193 C325.723389,493.799805 325.683167,494.339447 325.362549,494.975800 C324.968781,494.933350 324.855377,494.794128 324.593323,494.430359 z"/>
</svg>