<?xml version="1.0" standalone="no"?>
<!DOCTYPE svg PUBLIC "-//W3C//DTD SVG 20010904//EN"
 "http://www.w3.org/TR/2001/REC-SVG-20010904/DTD/svg10.dtd">
<svg version="1.0" xmlns="http://www.w3.org/2000/svg"
 width="1297.000000pt" height="950.000000pt" viewBox="0 0 1297.000000 950.000000"
 preserveAspectRatio="xMidYMid meet">

<g transform="translate(0.000000,950.000000) scale(0.100000,-0.100000)"
fill="#000000" stroke="none">
<path d="M3170 5864 c-89 -23 -172 -70 -242 -134 -37 -33 -70 -60 -74 -60 -5
0 -25 16 -45 36 l-37 36 -47 -27 c-109 -64 -198 -181 -242 -317 -15 -46 -27
-84 -28 -85 0 -1 -25 4 -55 12 -30 8 -55 13 -56 12 -17 -18 -67 -140 -80 -193
-19 -80 -14 -209 10 -289 8 -27 14 -51 11 -53 -2 -2 -25 -9 -52 -16 l-48 -12
-3 -57 c-6 -121 52 -265 151 -373 l60 -65 -37 -38 c-20 -20 -36 -41 -36 -46 0
-19 61 -101 116 -157 63 -63 161 -120 249 -143 32 -8 59 -16 61 -18 2 -2 -3
-27 -11 -57 -8 -30 -13 -55 -12 -56 18 -17 140 -67 193 -80 80 -19 209 -14
289 10 27 8 51 14 53 11 2 -2 9 -25 16 -52 l12 -48 57 -3 c121 -6 264 51 371
149 l67 62 40 -39 39 -38 34 18 c126 67 233 207 271 352 8 32 16 58 18 60 2 2
27 -3 57 -11 30 -8 56 -15 56 -15 9 -1 67 144 80 196 19 80 14 209 -10 289 -8
27 -14 51 -11 53 2 2 25 9 52 16 l48 12 3 57 c6 121 -51 264 -149 371 l-62 67
38 39 c45 46 44 50 -28 145 -73 96 -175 164 -302 200 -33 10 -61 18 -62 19 -1
1 4 26 12 56 8 30 15 56 15 56 1 9 -144 67 -196 80 -80 19 -209 14 -289 -10
-27 -8 -51 -14 -53 -11 -2 2 -9 25 -16 52 l-12 48 -65 2 c-35 1 -89 -5 -119
-13z m129 -94 c10 -29 8 -32 -42 -69 -118 -87 -206 -217 -238 -351 -37 -161 4
-350 109 -494 34 -46 34 -48 11 -41 -71 21 -197 121 -250 200 -96 143 -106
363 -22 516 61 113 170 204 293 246 94 32 125 31 139 -7z m464 -70 c58 -22 62
-27 51 -67 -5 -18 -14 -23 -38 -23 -17 0 -62 -7 -100 -15 -216 -46 -396 -217
-451 -430 -17 -66 -22 -200 -10 -255 7 -32 6 -33 -9 -21 -26 22 -83 130 -102
196 -26 89 -23 203 9 292 28 81 97 185 154 233 47 39 141 85 213 105 76 21
207 14 283 -15z m-977 -81 l22 -21 -28 -61 c-101 -225 -52 -485 125 -663 66
-66 191 -144 231 -144 8 0 14 -4 14 -9 0 -13 -70 -17 -156 -9 -147 13 -289 99
-374 226 -63 93 -85 165 -85 277 1 101 18 165 71 261 28 52 132 164 152 164 3
0 16 -9 28 -21z m1155 -113 c105 -32 206 -102 261 -179 l20 -28 -22 -24 -23
-24 -39 20 c-22 11 -74 29 -115 40 -275 70 -560 -63 -685 -319 l-43 -87 -6 50
c-8 65 5 169 30 238 54 156 194 280 364 323 62 16 191 11 258 -10z m53 -271
c175 -46 315 -176 366 -342 29 -93 27 -119 -10 -131 -28 -10 -31 -8 -65 38
-205 279 -568 336 -847 133 -58 -42 -61 -29 -12 53 123 205 351 305 568 249z
m-1568 -1 c18 -5 23 -16 28 -72 25 -246 204 -455 443 -516 68 -18 197 -23 253
-11 l35 7 -19 -21 c-31 -34 -154 -90 -236 -107 -237 -49 -489 102 -571 343
-33 95 -33 243 0 326 23 57 28 62 67 51z m1529 -286 c77 -25 175 -89 226 -146
84 -96 135 -246 126 -372 -5 -80 -41 -190 -60 -190 -45 1 -55 12 -62 68 -30
259 -200 463 -440 527 -63 17 -224 23 -265 10 -22 -7 -23 -6 -11 9 35 42 183
106 276 119 50 8 147 -4 210 -25z m-225 -195 c204 -56 352 -232 375 -443 17
-160 -71 -362 -196 -451 l-30 -21 -24 22 -24 23 20 39 c11 22 29 74 40 115 70
275 -62 560 -317 685 l-89 43 45 6 c60 7 133 1 200 -18z m-1295 -159 c111
-112 249 -169 410 -168 130 2 248 42 359 122 46 34 48 34 41 11 -27 -93 -156
-232 -259 -280 -144 -67 -306 -65 -449 7 -145 73 -252 220 -273 372 -6 48 -5
50 22 60 26 9 31 7 54 -21 14 -18 57 -64 95 -103z m1131 40 c245 -147 331
-427 208 -679 -56 -114 -178 -217 -301 -255 -93 -29 -119 -27 -131 10 -10 28
-8 31 38 65 279 205 336 568 133 848 -42 57 -29 60 53 11z m-70 -138 c49 -102
68 -202 55 -293 -26 -177 -127 -321 -276 -393 -92 -45 -177 -63 -265 -57 -80
5 -190 41 -190 60 1 45 12 55 68 62 261 30 466 203 528 446 17 67 23 217 9
259 l-8 25 22 -19 c12 -11 37 -52 57 -90z m-144 32 c5 -114 -13 -210 -54 -293
-77 -152 -236 -262 -408 -280 -160 -17 -362 72 -451 197 l-22 30 24 24 24 23
50 -24 c166 -82 405 -67 563 35 109 70 215 198 244 292 15 50 28 48 30 -4z"/>
<path d="M4901 5600 c-49 -12 -113 -60 -138 -105 l-23 -40 0 -708 c0 -765 -2
-738 55 -805 40 -48 80 -65 155 -66 57 -1 71 3 115 31 28 18 61 49 75 69 25
37 25 39 28 296 l3 258 465 0 c437 0 467 1 502 19 80 41 122 105 122 186 0 85
-48 160 -125 196 -37 17 -74 19 -502 19 l-463 0 0 115 0 115 568 0 c447 1 575
4 605 14 174 62 200 281 45 383 l-42 28 -705 2 c-388 1 -721 -2 -740 -7z"/>
<path d="M6781 5600 c-53 -13 -114 -61 -138 -110 l-23 -44 0 -703 c0 -761 -2
-734 55 -801 59 -71 14 -67 785 -70 483 -2 711 0 746 8 60 13 129 67 150 117
49 115 -23 262 -142 292 -28 7 -233 11 -603 11 l-561 0 0 565 c0 457 -3 572
-14 599 -17 41 -71 103 -105 121 -35 18 -109 26 -150 15z"/>
<path d="M8675 5601 c-75 -19 -148 -81 -165 -140 -8 -24 -10 -265 -8 -741 l3
-705 29 -43 c53 -77 167 -120 249 -93 57 19 117 69 138 114 18 40 19 76 19
745 0 626 -2 708 -16 738 -18 38 -67 89 -104 109 -33 17 -108 26 -145 16z"/>
<path d="M9231 5599 c-58 -17 -117 -65 -140 -112 -21 -44 -22 -48 -19 -758 l3
-714 33 -48 c43 -62 80 -84 154 -92 54 -6 66 -4 116 22 37 18 67 43 87 71 27
39 30 53 34 128 2 64 0 84 -10 84 -10 0 -10 3 -1 12 8 8 12 62 12 175 l0 163
428 0 c475 0 491 2 611 66 107 56 194 150 246 264 26 57 30 79 33 178 5 126
-4 171 -52 271 -55 115 -172 217 -311 272 l-60 24 -565 2 c-359 1 -577 -2
-599 -8z m1159 -534 l0 -115 -445 0 -445 0 0 115 0 115 445 0 445 0 0 -115z"/>
</g>
</svg>
